<svg xmlns="http://www.w3.org/2000/svg" version="1.1" viewBox="-5.0 -10.0 110.0 135.0">
 <path d="m39.621 43.238c-0.17969 0.097657-1.0039 0.53125-1.5469 0.69141-1.9336 0.55859-4.0625 0.62891-4.0625 0.62891-0.089844 0.003906-0.17969 0.007812-0.26953 0.019531-12.066 1.4648-28.918 12.34-30.609 31.453-0.92969 10.5 4.9648 15.734 11.109 18.34 5.6914 2.4102 11.598 2.3828 11.598 2.3828h43.688c1.2539 0 2.3867-0.75 2.875-1.9062 0.94531-2.25 0.91797-3.9492 0.51953-5.2656-0.45703-1.5-1.4453-2.6484-2.8164-3.5312-1.3125-0.84766-3.1875-1.3125-4.5234-2.2266-0.078125-0.38281-0.43359-2.1562-0.4375-3.3711-0.011719-2.4062 0.30859-4.9766 0.51172-6.3516 8.9766-8.6484 9.6875-21.891 9.4688-28.043 9.8828-0.94141 15.094-4.1641 17.898-7.1016 3.7461-3.918 3.7305-7.7539 3.7305-7.7539 0.046875-1.4688-0.9375-2.7695-2.3633-3.1289l-10.973-2.7422c-5.1016-6.6133-10.828-8.5781-13.906-9.1602-3.3359-7.5977-11.133-12.57-11.133-12.57-1.3164-0.82812-3.0469-0.55859-4.0469 0.63281-1.7383 2.0625-2.9023 5.3242-3.5625 8.5469-0.62891 3.082-0.83984 6.0781-0.90625 7.5469-5.0938 7.9492-8.9375 19.914-10.242 22.91zm17.508 47.273h7.9883c-1.2383-0.53516-2.5-1.0938-3.4961-1.8438-1.3516-1.0195-2.3828-3.2539-2.6289-6.0977-0.39063-4.457 0.67969-10.578 0.67969-10.578 0.125-0.69531 0.48047-1.3281 1.0117-1.7969 10.703-9.4258 8.0156-26.578 8.0156-26.578-0.13281-0.875 0.11719-1.7695 0.67969-2.4492 0.56641-0.68359 1.3945-1.0938 2.2773-1.1289 11.82-0.48437 16.246-4.2266 17.895-6.7383l-8.7266-2.1836c-0.72266-0.17969-1.3516-0.60938-1.7852-1.2109-5.3828-7.5312-11.77-7.7344-11.77-7.7344-1.3672 0-2.5742-0.88672-2.9844-2.1914-1.25-4.0039-4.3164-7.1914-6.5664-9.1055-0.35156 0.99609-0.61328 2.0898-0.83203 3.1562-0.76562 3.7344-0.81641 7.3203-0.81641 7.3203-0.007812 0.60547-0.19141 1.1992-0.53125 1.7031-5.207 7.7305-9.0625 20.176-10.289 22.895-0.66797 1.4727-2.1172 2.707-4.0078 3.4766-2.6055 1.0664-6.0781 1.3203-6.8555 1.3633-9.8984 1.2539-23.652 10.156-25.035 25.793-0.60937 6.9023 3.2891 10.328 7.3242 12.039 4.4883 1.9023 9.1445 1.8906 9.1445 1.8906h24.914c-1.0781-4.3438-3.707-10.215-9.8867-13.312-5.0586-2.5312-12.348-3.1406-22.805-0.078125-1.6523 0.48438-3.3867-0.46484-3.8711-2.1172s0.46484-3.3867 2.1172-3.8711c12.547-3.6797 21.285-2.5508 27.352 0.48438 0.15234 0.078124 0.30469 0.15625 0.45312 0.23437-0.41797-2.9688-0.99609-5.3633-0.99609-5.3633-0.40234-1.6758 0.62891-3.3633 2.3047-3.7656 1.6758-0.39844 3.3633 0.63281 3.7617 2.3086 0 0 1.5977 6.6953 1.5977 12.109 3.7852 4.3438 5.5898 9.5312 6.3672 13.371zm12.316-64.398c1.7227 0 3.1211 1.3984 3.1211 3.1211s-1.3984 3.1211-3.1211 3.1211c-1.7227 0-3.1211-1.3984-3.1211-3.1211s1.3984-3.1211 3.1211-3.1211z" fill-rule="evenodd"/>
<text x="0.0" y="117.5" font-size="5.0" font-weight="bold" font-family="Arbeit Regular, Helvetica, Arial-Unicode, Arial, Sans-serif" fill="#000000">Created by Muh Syafri</text><text x="0.0" y="122.5" font-size="5.0" font-weight="bold" font-family="Arbeit Regular, Helvetica, Arial-Unicode, Arial, Sans-serif" fill="#000000">from Noun Project</text></svg>